<svg viewBox="0 0 55 69.99609375" fill="none" xmlns="http://www.w3.org/2000/svg"><path d="M24.0511 0.2038345C22.4558 0.436295 20.96685 0.9148875 19.35635 1.6806325C15.542825 3.51295 12.92955 6.507575 11.6685 10.4867C11.36465 11.471225 11.33425 11.895125 11.288675 17.41945C11.2279 23.244575 11.2279 23.31295 11.56215 24.119725C12.01795 25.2 13.2942 26.376 14.403325 26.7315C15.1326 26.964 15.208575 27.046 15.3605 27.53825C16.074575 30.0405 17.928175 32.461 20.313525 33.97875C20.890875 34.3615 21.270725 34.7035 21.270725 34.85375C21.270725 35.141 21.5442 35.08625 15.892275 36.016C12.063525 36.64525 11.151925 36.89125 9.799725 37.657C9.100825 38.0535 7.140875 39.8175 7.140875 40.05C7.140875 40.11825 6.381225 39.886 5.439225 39.55775C4.512425 39.2295 3.722375 38.956 3.692 38.956C3.6768 38.956 3.6464 40.58325 3.6464 42.55225V46.16225L2.7348 46.381C1.6560775 46.6545 0.7748625 47.31075 0.31906 48.17225C0.03038675 48.70575 0 48.99275 0 51.82325C0 54.61275 0.03038675 54.941 0.31906 55.5015C0.8508275 56.5545 1.7472375 57.21075 2.917125 57.38875L3.57045 57.498L3.6464 59.5765L3.722375 61.6685L15.6036 65.83925L27.5 69.996L39.38125 65.83925L51.27775 61.6685L51.3535 59.5765L51.4295 57.498L52.08275 57.38875C53.25275 57.21075 54.14925 56.5545 54.681 55.5015C54.9695 54.941 55 54.61275 55 51.82325C55 48.99275 54.9695 48.70575 54.681 48.17225C54.22525 47.31075 53.344 46.6545 52.26525 46.381L51.3535 46.16225V42.53875C51.3535 39.16125 51.3385 38.92875 51.09525 39.0245C50.94325 39.0655 50.18375 39.339 49.40875 39.59875L47.99575 40.091L46.9475 39.05175C45.04825 37.20575 44.076 36.8365 39.10775 36.016C33.45575 35.08625 33.72925 35.141 33.72925 34.85375C33.72925 34.7035 34.109 34.3615 34.6865 33.99225C37.10225 32.4335 38.91025 30.09525 39.6395 27.53825C39.77625 27.046 39.8675 26.964 40.59675 26.7315C41.6905 26.3895 42.982 25.2 43.42275 24.147075C43.74175 23.381325 43.757 23.189875 43.757 16.899825C43.757 11.67635 43.71125 10.30895 43.529 9.6936C42.9365 7.66985 41.38675 5.946925 39.366 5.085475C38.728 4.811975 37.8315 4.2787 37.37575 3.9095C33.5015 0.7371225 28.913 -0.53456 24.0511 0.2038345ZM30.31075 2.71985C32.134 3.239475 33.9115 4.1693 35.522 5.454675C36.32725 6.111025 37.239 6.712675 37.5125 6.794725C38.8495 7.218625 40.08 8.162125 40.703 9.242375C41.2045 10.14485 41.326 11.25245 41.326 14.99915C41.326 18.3903 41.31075 18.609075 41.06775 18.513375C40.91575 18.458675 40.612 18.349275 40.384 18.2809C40.00425 18.157825 39.9585 18.0758 39.9585 17.556175V16.981875L37.19325 16.899825C34.337 16.817775 33.33425 16.667375 31.83 16.09305C30.098 15.4367 28.4725 14.274425 27.08975 12.660875L26.406 11.867775L25.0235 13.0711C23.215475 14.6436 22.471 15.163225 21.270725 15.7512C19.9641 16.3939 18.399175 16.77675 16.545575 16.88615L15.041425 16.981875V17.556175C15.041425 18.0758 14.99585 18.157825 14.631225 18.2809C14.388125 18.349275 14.08425 18.458675 13.947525 18.513375C13.689225 18.609075 13.674025 18.445 13.674025 16.1751C13.674025 14.821375 13.75 13.166825 13.84115 12.4968C14.509675 7.61515 18.5511 3.595 23.914375 2.501075C25.35775 2.21392 28.94325 2.32331 30.31075 2.71985ZM27.28725 16.1751C29.91575 18.157825 32.86325 19.1287 36.1905 19.1287H37.558L37.49725 22.779675C37.4365 26.12975 37.406 26.52625 37.087 27.4015C36.54 28.91925 35.76525 30.0405 34.489 31.1755C33.21275 32.32425 31.55675 33.172 29.855 33.55475C28.70025 33.8145 26.29975 33.8145 25.145 33.55475C21.7569 32.789 19.0069 30.437 17.912975 27.4015C17.593925 26.52625 17.563525 26.12975 17.50275 22.793325L17.442 19.142375L18.034525 19.060325C20.8757 18.62275 23.321825 17.56985 25.297 15.94265C25.7225 15.587125 26.07175 15.31365 26.10225 15.299975C26.1175 15.299975 26.64925 15.696525 27.28725 16.1751ZM15.041425 22.478825C15.041425 23.982975 14.99585 24.324825 14.828725 24.324825C14.54005 24.324825 13.9931 23.62745 13.810775 23.0258C13.61325 22.383125 13.88675 21.52165 14.4337 21.015725C14.6768 20.8106 14.9047 20.63285 14.950275 20.63285C14.99585 20.63285 15.041425 21.46695 15.041425 22.478825ZM40.931 21.453275C41.3715 22.136975 41.326 23.066825 40.8245 23.7642C40.08 24.7624 39.9585 24.57095 39.9585 22.46515V20.6055L40.308 20.796925C40.49025 20.92 40.779 21.20715 40.931 21.453275ZM26.05675 35.9615C27.3025 36.11175 29.09525 36.02975 30.14375 35.79725C30.46275 35.71525 30.7515 35.688 30.78175 35.71525C30.82725 35.74275 30.098 36.276 29.17125 36.905L27.5 38.02625L25.82875 36.905C24.917125 36.2895 24.15745 35.75625 24.15745 35.71525C24.15745 35.67425 24.3094 35.688 24.5069 35.729C24.689225 35.77 25.388 35.8795 26.05675 35.9615ZM23.868775 38.42275C24.780375 39.038 25.52475 39.57125 25.52475 39.626C25.52475 39.76275 23.109125 41.896 23.04835 41.814C22.881225 41.64975 21.43785 37.534 21.513825 37.43825C21.711325 37.1375 22.34945 37.39725 23.868775 38.42275ZM33.48625 37.43825C33.56225 37.534 32.11875 41.64975 31.95175 41.814C31.8605 41.90975 29.46 39.7355 29.52075 39.59875C29.536 39.53025 30.2805 38.997 31.1465 38.3955C32.62025 37.411 33.28875 37.1375 33.48625 37.43825ZM20.237575 41.44475C20.96685 43.41375 21.529 45.05475 21.498625 45.082C21.42265 45.164 9.8757 41.1575 9.662975 40.97975C9.4199 40.802 10.90885 39.63975 11.942 39.20225C12.5953 38.92875 13.7348 38.65525 15.6036 38.34075C17.09255 38.0945 18.44475 37.87575 18.611875 37.87575C18.88535 37.862 19.082875 38.31325 20.237575 41.44475ZM39.25975 38.327C41.2955 38.669 42.3895 38.915 43.07325 39.21575C44.076 39.626 45.565 40.81575 45.337 40.9935C45.109 41.17125 33.57725 45.1505 33.5015 45.082C33.37975 44.9725 36.069 37.862 36.2515 37.862C36.32725 37.862 37.69475 38.06725 39.25975 38.327ZM30.007 43.33175C31.32875 44.52125 32.39225 45.53325 32.362 45.5605C32.31625 45.588 31.20725 45.9845 29.9005 46.4495L27.5 47.26975L25.11475 46.4495C23.792825 45.9845 22.6837 45.588 22.638125 45.5605C22.57735 45.506 27.36325 41.144 27.5 41.144C27.5455 41.144 28.67 42.1285 30.007 43.33175ZM16.758275 45.92975L26.2845 49.26625V58.209C26.2845 65.306 26.239 67.13825 26.10225 67.0835C25.99575 67.0425 21.7721 65.56575 16.7127 63.80175C11.653325 62.03775 7.23205 60.479 6.8826 60.356L6.229275 60.1235V58.57825V57.033L6.8826 56.69125C7.779 56.21275 8.9185 55.07775 9.359125 54.23C10.65055 51.65925 9.556625 48.5005 6.8826 47.06475L6.229275 46.723V44.48025V42.23775L6.730675 42.4155C6.98895 42.525 11.501375 44.0975 16.758275 45.92975ZM48.77075 44.48025V46.723L48.1325 47.06475C45.44325 48.5005 44.3495 51.65925 45.641 54.23C46.0815 55.07775 47.221 56.21275 48.1175 56.69125L48.77075 57.033V58.57825C48.77075 59.68575 48.71 60.137 48.5885 60.19175C48.482 60.23275 44.0455 61.778 38.743 63.63775C33.4405 65.49725 29.00425 67.0425 28.913 67.0835C28.761 67.13825 28.7155 65.306 28.7155 58.209V49.26625L38.71275 45.752C44.1975 43.83775 48.71 42.2515 48.74025 42.2515C48.7555 42.23775 48.77075 43.24975 48.77075 44.48025ZM4.892275 48.692C5.758275 48.9245 6.730675 49.7585 7.140875 50.60625C7.718225 51.82325 7.368775 53.3685 6.27485 54.29825C5.37845 55.064 3.631225 55.47425 3.023475 55.0505C2.5069 54.69475 2.43094 54.312 2.43094 51.878C2.43094 48.856 2.552475 48.569 3.78315 48.5415C4.056625 48.52775 4.558 48.59625 4.892275 48.692ZM51.88525 48.61C52.4475 48.815 52.569 49.37575 52.569 51.878C52.569 54.312 52.493 54.69475 51.9765 55.0505C51.612 55.31025 50.594 55.2555 49.83425 54.941C48.49725 54.394 47.7375 53.42325 47.60075 52.0695C47.4185 50.29175 49.105 48.569 51.08 48.5415C51.384 48.52775 51.7485 48.569 51.88525 48.61Z" fill="white"></path></svg>