<svg viewBox="0 0 60 60" fill="none" xmlns="http://www.w3.org/2000/svg"><path d="M27.792 0.0587655C23.43895 0.46915 20.13015 1.3954475 16.516275 3.21285C13.641625 4.64335 11.3067 6.355225 8.83095 8.817525C6.2027 11.455725 4.53655 13.777325 2.9643 17.03695C1.1104275 20.859375 0.1834945 24.65835 0.019227825 28.99675C-0.156772 33.99175 0.87576 38.752 3.1051 43.23125C4.665625 46.38525 6.284825 48.613 8.83095 51.16925C11.424025 53.74875 13.6651 55.355 16.82135 56.90275C19.027225 57.9815 20.44695 58.50925 22.688025 59.072C28.55475 60.54925 34.4565 60.25625 40.159 58.2395C41.7195 57.6885 44.5355 56.32825 45.86125 55.484C52.92475 51.005 57.8645 43.88775 59.46025 35.9145C59.90625 33.71025 60 32.66675 60 29.99325C60 27.32 59.90625 26.2765 59.46025 24.0721C57.9115 16.309975 53.183 9.345175 46.448 4.889575C44.911 3.869475 41.6255 2.2396625 39.99475 1.67685C37.601 0.8560825 35.14875 0.328445 32.66125 0.09394075C31.4645 -0.011585225 28.75425 -0.035038 27.792 0.0587655ZM33.776 4.2564C39.44325 5.11235 44.32425 7.57465 48.384 11.643325C52.479 15.7237 54.90775 20.554525 55.7995 26.3585C56.081 28.1995 56.081 31.78725 55.7995 33.62825C55.10725 38.154 53.4645 42.07025 50.75425 45.70525C49.6865 47.13575 47.1755 49.64475 45.744 50.71175C41.00375 54.24125 35.87625 55.953 30.02125 55.953C24.17815 55.953 19.027225 54.2295 14.32215 50.71175C8.90135 46.64325 5.31095 40.55775 4.25495 33.62825C3.961625 31.76375 3.961625 28.18775 4.243225 26.3585C5.59255 17.64665 10.80215 10.49425 18.58135 6.660075C21.585075 5.1827 24.330675 4.432275 28.20275 4.033625C29.118 3.939825 32.5675 4.080525 33.776 4.2564Z" fill="white"></path><path d="M29.3995 16.858675C28.848 17.0382 28.449 17.36555 28.2145 17.819625C28.05025 18.125875 28.02675 19.10795 28.02675 25.76075V33.364L28.2965 33.797C28.496 34.13475 29.728 35.07475 33.71725 37.947C36.55675 39.985 39.02075 41.717 39.19675 41.8015C39.37275 41.88575 39.77175 41.94925 40.0885 41.94925C41.50825 41.94925 42.4235 40.56575 41.78975 39.3725C41.649 39.1085 40.335 38.09475 36.815 35.5605L32.016 32.10725L31.9925 25.011L31.95725 17.9041L31.62875 17.52395C31.0655 16.858675 30.19725 16.594675 29.3995 16.858675Z" fill="white"></path></svg>